<svg width="27" height="26" viewBox="0 0 27 26" fill="none" xmlns="http://www.w3.org/2000/svg">
<path fill-rule="evenodd" clip-rule="evenodd" d="M20.3917 1.67627C20.7502 1.67627 21.0586 1.93002 21.1277 2.28183C21.4794 4.07404 22.8872 5.49179 24.6127 5.83865C24.9629 5.90906 25.2149 6.21671 25.2149 6.57394C25.2149 6.93118 24.9629 7.23883 24.6127 7.30923C22.8866 7.65622 21.4789 9.07205 21.1273 10.8637C21.0582 11.2155 20.7498 11.4692 20.3913 11.4692C20.0328 11.4692 19.7244 11.2155 19.6553 10.8637C19.3037 9.07197 17.8963 7.6562 16.1703 7.30923C15.8201 7.23883 15.5682 6.93118 15.5682 6.57394C15.5682 6.21671 15.8201 5.90906 16.1703 5.83865C17.8959 5.49177 19.304 4.07395 19.6557 2.28183C19.7248 1.93002 20.0332 1.67627 20.3917 1.67627ZM13.8182 6.57394C13.8182 6.37319 13.842 6.18836 13.8873 6C11.1865 6 8.48569 6 5.78491 6C3.57577 6 1.78491 7.79086 1.78491 10V21C1.78491 23.2091 3.57497 25 5.78411 25C8.96965 25 13.416 25 16.6512 25C18.8603 25 20.6474 23.2091 20.6474 21V13.2062C20.563 13.2148 20.4776 13.2192 20.3913 13.2192C19.1962 13.2192 18.1683 12.3734 17.9381 11.2007C17.7197 10.088 16.8414 9.22915 15.8254 9.02491C14.658 8.79022 13.8182 7.76472 13.8182 6.57394ZM16.5682 17.7537L18.7849 20.2639V21C18.7849 22.1046 17.8895 23 16.7849 23H5.78492C4.68035 23 3.78492 22.1046 3.78492 21V17.2224L6.14559 14.0843C6.15101 14.0771 6.15661 14.07 6.1624 14.0631C6.28034 13.9228 6.41139 13.7953 6.55513 13.6808C6.55997 13.6769 6.56488 13.6732 6.56987 13.6695C7.4975 12.9854 8.81093 13.1775 9.51152 14.0778L9.51301 14.0797L12.7066 18.2249L13.4081 17.542L13.4158 17.5345C13.4631 17.4883 13.5424 17.411 13.6425 17.3438C14.5673 16.6708 15.8691 16.8624 16.5682 17.7537Z" fill="white" fill-opacity="0.9"/>
<path d="M14.5222 5.50049L14.3738 6.1167C14.3371 6.26924 14.3181 6.41497 14.3181 6.57373C14.3181 7.52627 14.9898 8.3468 15.9236 8.53467C17.1417 8.77954 18.1717 9.79688 18.4285 11.104C18.6126 12.0422 19.4353 12.7192 20.3914 12.7192C20.4605 12.7192 20.5289 12.7154 20.5964 12.7085L21.1472 12.6528V21.0005C21.147 23.4849 19.1369 25.5005 16.6511 25.5005H5.78394C3.29877 25.5004 1.28518 23.4854 1.28491 21.0005V10.0005C1.28491 7.51521 3.29963 5.50049 5.78491 5.50049H14.5222ZM9.11694 14.3853C8.58112 13.6967 7.57402 13.5506 6.86694 14.0718C6.74924 14.1655 6.64095 14.2689 6.54468 14.3833L6.54565 14.3843L4.28491 17.3892V21.0005C4.28518 21.8287 4.95665 22.5005 5.78491 22.5005H16.7849C17.6133 22.5005 18.2849 21.8279 18.2849 20.9995V20.4536L16.1931 18.0845L16.1833 18.0737L16.1746 18.062C15.6398 17.3805 14.6411 17.2356 13.9363 17.7485L13.9294 17.7534L13.9216 17.7593C13.8632 17.7985 13.8121 17.8465 13.7654 17.8921L13.7644 17.8931L13.7566 17.8999L13.0554 18.5835L12.6531 18.9751L12.3103 18.5298L9.11694 14.3853ZM20.3914 1.17627C20.9887 1.17627 21.5026 1.59901 21.6179 2.18506C21.9316 3.78346 23.1892 5.0421 24.7117 5.34814C25.295 5.46562 25.7145 5.97853 25.7146 6.57373C25.7146 7.16899 25.2951 7.6818 24.7117 7.79932C23.1883 8.10556 21.9314 9.36299 21.6179 10.9604C21.5026 11.5465 20.9887 11.9692 20.3914 11.9692C19.794 11.9692 19.2801 11.5466 19.1648 10.9604V10.9595C18.8512 9.36219 17.595 8.1056 16.072 7.79932C15.4883 7.68197 15.0681 7.16905 15.0681 6.57373C15.0682 5.9785 15.4884 5.46549 16.072 5.34814L16.3542 5.27979C17.7479 4.88336 18.8708 3.6833 19.1648 2.18506C19.2801 1.59905 19.7941 1.17641 20.3914 1.17627Z" stroke="black" stroke-opacity="0.1"/>
</svg>
