<svg width="264" height="412" viewBox="0 0 264 412" fill="none" xmlns="http://www.w3.org/2000/svg">
<mask id="path-1-inside-1_2186_2469" fill="white">
<path fill-rule="evenodd" clip-rule="evenodd" d="M118.572 22.9996C116.289 10.2858 105.878 0 92.9611 0H24C10.7452 0 0 10.7452 0 24V388C0 401.255 10.7452 412 24 412H240C253.255 412 264 401.255 264 388V178.229C264 165.819 254.471 155.646 242.376 152.869C179.242 138.374 130.103 87.2133 118.572 22.9996Z"/>
</mask>
<path fill-rule="evenodd" clip-rule="evenodd" d="M118.572 22.9996C116.289 10.2858 105.878 0 92.9611 0H24C10.7452 0 0 10.7452 0 24V388C0 401.255 10.7452 412 24 412H240C253.255 412 264 401.255 264 388V178.229C264 165.819 254.471 155.646 242.376 152.869C179.242 138.374 130.103 87.2133 118.572 22.9996Z" fill="#191934"/>
<path d="M242.376 152.869L242.152 153.844L242.376 152.869ZM24 0V1H92.9611V0V-1H24V0ZM0 388H1V24H0H-1V388H0ZM240 412V411H24V412V413H240V412ZM264 178.229H263V388H264H265V178.229H264ZM242.376 152.869L242.6 151.895C179.854 137.489 131.016 86.6405 119.556 22.8228L118.572 22.9996L117.588 23.1763C129.19 87.7862 178.629 139.26 242.152 153.844L242.376 152.869ZM264 178.229H265C265 165.275 255.068 154.757 242.6 151.895L242.376 152.869L242.152 153.844C253.874 156.535 263 166.363 263 178.229H264ZM240 412V413C253.807 413 265 401.807 265 388H264H263C263 400.703 252.703 411 240 411V412ZM0 388H-1C-1 401.807 10.1929 413 24 413V412V411C11.2974 411 1 400.703 1 388H0ZM92.9611 0V1C105.311 1 115.375 10.8521 117.588 23.1763L118.572 22.9996L119.556 22.8228C117.203 9.71951 106.446 -1 92.9611 -1V0ZM24 0V-1C10.1929 -1 -1 10.1929 -1 24H0H1C1 11.2975 11.2975 1 24 1V0Z" fill="white" fill-opacity="0.05" mask="url(#path-1-inside-1_2186_2469)"/>
</svg>
