<svg width="556" height="396" viewBox="0 0 556 396" fill="none" xmlns="http://www.w3.org/2000/svg">
<mask id="path-1-inside-1_2186_2393" fill="white">
<path fill-rule="evenodd" clip-rule="evenodd" d="M556 24C556 10.7452 545.255 0 532 0H24C10.7452 0 0 10.7452 0 24V372C0 385.255 10.7452 396 24 396H95.4926C107.507 396 117.483 387.043 120.612 375.443C139.327 306.059 202.701 255 278 255C353.299 255 416.673 306.059 435.388 375.443C438.517 387.043 448.493 396 460.507 396H532C545.255 396 556 385.255 556 372V24Z"/>
</mask>
<path fill-rule="evenodd" clip-rule="evenodd" d="M556 24C556 10.7452 545.255 0 532 0H24C10.7452 0 0 10.7452 0 24V372C0 385.255 10.7452 396 24 396H95.4926C107.507 396 117.483 387.043 120.612 375.443C139.327 306.059 202.701 255 278 255C353.299 255 416.673 306.059 435.388 375.443C438.517 387.043 448.493 396 460.507 396H532C545.255 396 556 385.255 556 372V24Z" fill="#E9E6E6"/>
<path d="M24 0V1H532V0V-1H24V0ZM0 372H1V24H0H-1V372H0ZM95.4926 396V395H24V396V397H95.4926V396ZM120.612 375.443L121.577 375.703C140.178 306.744 203.164 256 278 256V255V254C202.237 254 138.476 305.373 119.646 375.182L120.612 375.443ZM278 255V256C352.836 256 415.822 306.744 434.423 375.703L435.388 375.443L436.354 375.182C417.524 305.373 353.762 254 278 254V255ZM532 396V395H460.507V396V397H532V396ZM556 24H555V372H556H557V24H556ZM532 396V397C545.807 397 557 385.807 557 372H556H555C555 384.703 544.703 395 532 395V396ZM95.4926 396V397C108.033 397 118.351 387.663 121.577 375.703L120.612 375.443L119.646 375.182C116.614 386.422 106.981 395 95.4926 395V396ZM0 372H-1C-1 385.807 10.1929 397 24 397V396V395C11.2975 395 1 384.703 1 372H0ZM532 0V1C544.703 1 555 11.2975 555 24H556H557C557 10.1929 545.807 -1 532 -1V0ZM435.388 375.443L434.423 375.703C437.649 387.663 447.967 397 460.507 397V396V395C449.019 395 439.386 386.422 436.354 375.182L435.388 375.443ZM24 0V-1C10.1929 -1 -1 10.1929 -1 24H0H1C1 11.2975 11.2975 1 24 1V0Z" fill="#C38C8C" fill-opacity="0.19" mask="url(#path-1-inside-1_2186_2393)"/>
</svg>
